<?xml version="1.0" encoding="UTF-8" standalone="no"?>
<!-- Created with Inkscape (http://www.inkscape.org/) -->

<svg
   width="97.466072mm"
   height="52.34166mm"
   viewBox="0 0 97.466075 52.341661"
   version="1.1"
   id="svg1"
   inkscape:version="1.3 (0e150ed6c4, 2023-07-21)"
   sodipodi:docname="hope_is_alive_svg.svg"
   xmlns:inkscape="http://www.inkscape.org/namespaces/inkscape"
   xmlns:sodipodi="http://sodipodi.sourceforge.net/DTD/sodipodi-0.dtd"
   xmlns="http://www.w3.org/2000/svg"
   xmlns:svg="http://www.w3.org/2000/svg">
  <sodipodi:namedview
     id="namedview1"
     pagecolor="#ffffff"
     bordercolor="#000000"
     borderopacity="0.25"
     inkscape:showpageshadow="2"
     inkscape:pageopacity="0.0"
     inkscape:pagecheckerboard="0"
     inkscape:deskcolor="#d1d1d1"
     inkscape:document-units="mm"
     inkscape:zoom="1.0699144"
     inkscape:cx="-0.93465419"
     inkscape:cy="240.67345"
     inkscape:window-width="3440"
     inkscape:window-height="1369"
     inkscape:window-x="-8"
     inkscape:window-y="-8"
     inkscape:window-maximized="1"
     inkscape:current-layer="g2" />
  <defs
     id="defs1" />
  <g
     inkscape:label="Layer 1"
     inkscape:groupmode="layer"
     id="layer1"
     transform="translate(37.837458,-1.4964373)">
    <g
       id="g2">
      <path
         style="font-size:44.0973px;line-height:1.6;font-family:'Infinite Stroke';-inkscape-font-specification:'Infinite Stroke';text-align:center;letter-spacing:0.264583px;word-spacing:2.64583px;text-orientation:upright;text-anchor:middle;fill:#ffffff;stroke-width:0.265;stroke-dashoffset:7.57191"
         d="M 7.4809997,10.88083 C 8.9735238,8.6759648 11.042705,6.0979687 11.042705,6.0979687 c 0.06784,-0.101763 0.101763,-0.169605 0.101763,-0.271368 0,-0.440973 -0.440973,-1.560366 -1.051551,-2.3405491 -0.6105782,-0.814104 -1.7299712,-1.560366 -2.5101543,-1.560366 -0.135684,0 -0.203526,0.033921 -0.203526,0.033921 0.33921,0.135684 0.474894,0.508815 0.474894,0.949788 0,1.119393 -1.051551,2.7136801 -2.37447,4.7489402 -3.0189691,4.6132562 -6.20754325,9.1925912 -8.9890653,13.5005582 -4.0365992,-0.712341 -6.8859634,-0.780183 -9.8710114,-0.780183 1.933497,-2.442312 7.4965413,-8.853381 7.4965413,-11.3635352 0,-4.0026781 -3.4260211,-7.2930152 -7.7000673,-7.4965412 -10.413747,-0.5088151 -23.439412,7.8357512 -23.439412,14.1789784 0,2.001339 2.37447,5.020308 5.461281,5.020308 3.527785,0 9.328276,-3.324258 14.89132,-9.599643 0.33921,-0.373131 0.407052,-0.814104 -0.135684,-0.373131 -5.122071,4.172283 -13.364875,8.276724 -16.92658,8.276724 -0.746262,0 -1.255077,-0.474894 -1.255077,-1.119393 0,-4.647177 12.822139,-14.5860304 22.082572,-14.5860304 2.306628,0 4.7828612,0.474894 4.7828612,2.9511271 0,2.1370231 -2.9511272,5.6987283 -4.1383622,7.2251733 -1.662129,2.103102 -3.833073,4.647177 -5.834412,7.157331 -5.393439,0.440973 -10.549431,1.35684 -13.907611,2.781522 -3.120732,1.322919 -5.834412,4.341888 -5.834412,7.76791 0,1.390761 1.526445,1.831734 2.781522,1.831734 1.594287,0 3.833073,-0.780183 3.833073,-1.01763 -2.272707,0 -5.08815,-0.949788 -5.08815,-1.662129 0,-1.560367 6.071859,-5.664808 16.417765,-7.530463 -5.020308,6.139701 -10.990405,14.721715 -10.990405,17.367553 0,1.085472 0.848025,1.967418 1.560366,2.645838 0.712342,0.67842 1.865656,1.221156 2.951128,1.221156 1.865655,0 7.191252,-5.054229 9.056907,-7.869672 0.169605,-0.271368 -0.271368,-0.169605 -0.407052,-0.03392 -2.272707,1.831734 -9.15867,6.885963 -10.074537,6.648516 -0.440973,-0.101763 -0.474894,-0.542736 -0.474894,-0.712341 0,-0.814104 1.01763,-2.917206 2.37447,-4.952466 2.442312,-3.663468 7.428699,-10.719037 11.024325,-14.993083 3.290337,-0.305289 6.5467532,-0.373131 10.6851153,0.101763 -4.3758091,7.055568 -6.8520423,12.075877 -6.8520423,15.603661 0,1.797813 1.9674182,4.206204 5.1899133,4.477572 0.848025,0.06784 2.9172061,-1.831734 3.4599421,-2.611917 0.203526,-0.305289 0.135684,-0.474894 -0.135684,-0.271368 -0.474894,0.33921 -2.7136801,1.560366 -4.3079672,1.526445 -0.881946,0 -0.949788,-1.153314 -0.949788,-1.797813 0,-3.290337 2.1370231,-8.14104 7.29301526,-16.417765 1.66212904,0.305289 3.12073214,0.610578 4.57933514,1.01763 0.067842,0.03392 0.101763,-0.03392 0.067842,-0.06784 C 3.3087166,23.09239 1.8501135,22.481812 0.05230048,21.939076 2.0536395,18.852265 4.4959516,15.256639 7.4809997,10.88083 Z M 0.89352878,29.639144 c -0.101763,2.679759 3.18857412,4.240125 4.47757212,4.443651 5.9022541,0.983709 14.7217141,-9.022987 14.9591611,-12.85606 2.408392,-0.03392 4.477573,-0.203526 5.088151,-0.407052 1.051551,-0.33921 0.610578,-0.542736 0.203526,-0.474894 -0.508815,0.101763 -2.883285,0.169605 -5.291677,0.03392 -0.373131,-2.577996 -2.577996,-4.884624 -4.477572,-4.477572 -0.983709,0.203526 -3.120732,1.051551 -4.07052,2.03526 C 7.37244,19.191475 1.0292128,25.534702 0.89352878,29.639144 Z m 2.44231212,2.001339 c 0,-2.374471 4.7828611,-9.430039 9.9049321,-11.126089 1.119393,0.33921 2.645838,0.542736 4.206204,0.644499 -2.510154,4.816782 -10.040616,11.567062 -12.9578221,11.600983 -0.780183,0 -1.153314,-0.440973 -1.153314,-1.119393 z M 18.261081,18.445213 c 0,0.542736 -0.135684,1.119393 -0.373131,1.729971 -1.967418,-0.271368 -3.459942,-0.746262 -3.324258,-1.594287 0.135684,-0.67842 0.881946,-1.594287 1.933497,-1.797813 1.085472,-0.203526 1.763892,0.440973 1.763892,1.662129 z m 25.840999,3.765231 c 0.305289,-0.03392 0.169605,-0.474894 -0.03392,-0.474894 -1.01763,0.06784 -3.086811,0.237447 -4.511493,0.407052 0.271368,-0.780183 0.440973,-1.492524 0.440973,-2.137023 0,-1.831734 -2.679759,-4.002678 -4.715019,-4.002678 -2.204865,0 -4.375809,0.848025 -6.377148,2.306628 -0.474894,-0.712341 -1.119393,-1.458603 -1.492524,-1.797813 -0.848025,-0.712341 -1.153314,-0.440973 -1.119393,-0.440973 0.610578,0.305289 0.203526,1.560366 -0.712341,2.917206 -1.322919,1.967418 -4.918545,6.919884 -6.987726,9.972774 -2.849364,4.240126 -7.496542,12.143719 -9.0908287,16.349923 -0.881946,2.37447 3.0189687,4.613256 3.0189687,4.138362 -1.594287,-1.899576 4.138363,-11.329614 7.801831,-17.29971 0.949788,1.255077 2.815443,2.103102 3.934836,2.103102 4.511493,0 9.260433,-3.866994 12.008034,-6.885964 1.322919,-1.458603 2.37447,-3.05289 3.018969,-4.511493 1.119393,-0.169605 3.493863,-0.508815 4.816782,-0.644499 z M 24.122611,26.48449 c 2.544075,-3.222495 4.477572,-5.291676 6.546753,-6.7842 1.933497,-1.390761 4.138362,-2.544075 5.42736,-2.544075 0.848025,0 1.424682,0.474894 1.424682,1.119393 0,1.187235 -0.746262,2.747601 -1.933497,4.40973 l -0.576657,0.101763 c -3.527784,0.712341 -6.987726,1.492524 -10.888641,3.697389 z m -2.03526,5.936176 c -0.440973,0 -0.848025,-0.135684 -0.848025,-0.644499 0,-0.508815 1.594287,-2.781523 5.834412,-5.020309 1.526445,-0.814104 3.3921,-1.69605 7.564383,-2.849364 -3.595626,4.206204 -8.446329,8.514172 -12.55077,8.514172 z m 25.433947,-13.87369 c -2.679759,1.729971 -5.76657,4.545414 -7.496541,7.12341 -1.01763,1.526445 -1.662129,3.018969 -1.628208,4.240126 0.03392,1.662129 2.815443,4.274046 4.443651,4.274046 3.3921,0 12.109797,-6.275386 16.756975,-11.227852 0.135684,-0.135684 -0.203526,-0.407052 -0.33921,-0.305289 -3.154654,2.611917 -6.953806,4.986387 -10.006696,6.614595 -2.069181,1.119394 -5.223834,2.713681 -7.021647,2.713681 -0.542736,0 -0.915867,-0.203526 -0.881946,-0.712341 0.06784,-0.712341 0.542736,-2.306629 1.831734,-4.104442 6.207543,-0.03392 14.619951,-5.630886 14.619951,-7.326936 0,-1.729971 -1.865655,-3.833073 -3.934836,-3.833073 -1.729971,0 -3.968757,1.01763 -6.343227,2.544075 z m 7.937514,-0.746262 c 0.237447,0 0.440973,0.06784 0.440973,0.373131 0,0.407052 -0.949788,1.865655 -3.426021,3.697389 -2.340549,1.729971 -5.868333,3.866994 -8.582013,4.40973 3.426021,-3.968757 8.853381,-8.48025 11.567061,-8.48025 z"
         id="text1"
         aria-label="Hope" />
      <path
         style="font-size:16.2735px;line-height:1.6;font-family:Montserrat;-inkscape-font-specification:Montserrat;text-align:center;letter-spacing:0.0976411px;word-spacing:0.976411px;text-orientation:upright;text-anchor:middle;fill:#ffffff;stroke-width:0.097795;stroke-dashoffset:7.57191"
         d="m -2.246379,47.264735 h 1.1554186 v 8.559861 H -2.246379 Z m 0.585846,-1.871452 q -0.358017,0 -0.6021195,-0.244103 -0.2441025,-0.244102 -0.2441025,-0.585846 0,-0.32547 0.2441025,-0.569572 0.2441025,-0.244103 0.6021195,-0.244103 0.3580171,0 0.6021196,0.244103 0.24410247,0.227829 0.24410247,0.553299 0,0.358017 -0.24410247,0.602119 -0.2441025,0.244103 -0.6021196,0.244103 z m 6.1839154,10.512681 q -1.041504,0 -2.0016406,-0.292923 -0.943863,-0.309197 -1.4808885,-0.764855 l 0.520752,-0.911316 q 0.5370255,0.423111 1.3507005,0.699761 0.8136751,0.260376 1.6924441,0.260376 1.171692,0 1.724991,-0.358017 0.5695725,-0.374291 0.5695725,-1.041504 0,-0.471932 -0.3091965,-0.732308 Q 6.2809204,52.488529 5.8089889,52.358341 5.3370574,52.211879 4.5559294,52.081691 3.5144254,51.886409 2.8797588,51.691127 2.2450923,51.479572 1.7894343,50.991367 1.3500498,50.503162 1.3500498,49.640666 q 0,-1.074051 0.8950425,-1.757538 0.8950425,-0.683487 2.4898456,-0.683487 0.8299485,0 1.659897,0.227829 0.8299486,0.211556 1.3669741,0.569573 l -0.5044785,0.927589 q -1.0577776,-0.732307 -2.5223926,-0.732307 -1.106598,0 -1.6761706,0.390564 -0.553299,0.390564 -0.553299,1.02523 0,0.488205 0.3091965,0.781128 0.32547,0.292923 0.7974016,0.439385 0.4719315,0.130188 1.30188,0.276649 1.0252305,0.195282 1.6436235,0.390564 0.6183931,0.195282 1.0577776,0.667214 0.4393845,0.471931 0.4393845,1.30188 0,1.122871 -0.943863,1.790085 -0.9275896,0.65094 -2.5874866,0.65094 z M 23.010071,52.781452 h -6.346666 l -1.366974,3.043144 h -1.253059 l 5.20752,-11.39145 h 1.187966 l 5.20752,11.39145 h -1.269333 z m -0.439385,-0.97641 -2.733948,-6.118836 -2.733948,6.118836 z m 4.816972,-8.055383 h 1.155419 v 12.074937 h -1.155419 z m 4.475197,3.515076 h 1.155418 v 8.559861 h -1.155418 z m 0.585846,-1.871452 q -0.358017,0 -0.60212,-0.244103 -0.244102,-0.244102 -0.244102,-0.585846 0,-0.32547 0.244102,-0.569572 0.244103,-0.244103 0.60212,-0.244103 0.358017,0 0.602119,0.244103 0.244103,0.227829 0.244103,0.553299 0,0.358017 -0.244103,0.602119 -0.244102,0.244103 -0.602119,0.244103 z m 11.082242,1.871452 -3.807999,8.559861 h -1.187966 l -3.791726,-8.559861 h 1.20424 l 3.205879,7.290528 3.238427,-7.290528 z m 8.934158,4.637948 h -7.16034 q 0.09764,1.334427 1.02523,2.164375 0.92759,0.813675 2.343384,0.813675 0.797402,0 1.464616,-0.276649 0.667213,-0.292923 1.155418,-0.846222 l 0.65094,0.748581 q -0.569572,0.683487 -1.432068,1.041504 -0.846222,0.358017 -1.871453,0.358017 -1.318153,0 -2.343384,-0.553299 -1.008957,-0.569573 -1.578529,-1.562256 -0.569573,-0.992684 -0.569573,-2.245743 0,-1.25306 0.537026,-2.245743 0.553299,-0.992684 1.497162,-1.545983 0.960136,-0.553299 2.148102,-0.553299 1.187966,0 2.131829,0.553299 0.943863,0.553299 1.480888,1.545983 0.537026,0.97641 0.537026,2.245743 z m -4.133469,-3.710358 q -1.236786,0 -2.083008,0.797401 -0.829949,0.781128 -0.943863,2.050461 h 6.070016 Q 51.260862,49.770854 50.41464,48.989726 49.584692,48.192325 48.331632,48.192325 Z"
         id="text2"
         transform="scale(1.038409,0.96301169)"
         aria-label="is Alive" />
    </g>
  </g>
</svg>
